<svg width="600" height="600" viewBox="0 0 600 600" fill="none" xmlns="http://www.w3.org/2000/svg">
<g clip-path="url(#clip0_2073_12)">
<path d="M267.815 133.039V142.828C227.754 153.16 207.724 191.046 207.724 256.484C207.724 327.362 232.649 369.054 282.499 381.561V223.585C282.499 200.563 283.949 183.796 286.85 173.282C289.751 162.586 296.095 153.251 305.883 145.276C315.854 137.119 327.818 133.04 341.776 133.04C366.248 133.04 388.906 144.551 409.752 167.572C430.779 190.593 441.293 220.593 441.293 257.572C441.293 292.194 430.507 323.101 408.937 350.292C387.547 377.483 355.19 392.981 311.866 396.788V508.541H282.5V396.788C244.796 393.525 214.524 379.477 191.684 354.643C169.025 329.628 157.695 297.18 157.695 257.301C157.695 221.41 168.028 192.134 188.693 169.475C209.359 146.635 235.734 134.49 267.818 133.04L267.815 133.039ZM311.863 381.56C368.964 373.041 397.514 336.152 397.514 270.895C397.514 240.804 391.351 215.608 379.025 195.305C366.88 174.822 352.56 164.58 336.064 164.58C330.082 164.58 325.007 166.755 320.837 171.106C316.851 175.275 314.311 180.26 313.22 186.061C312.313 191.862 311.859 203.282 311.859 220.321L311.863 381.56Z" fill="#3E3A2F"/>
</g>
<defs>
<clipPath id="clip0_2073_12">
<rect width="600" height="600" fill="white"/>
</clipPath>
</defs>
</svg>
